<svg id="Layer_5" enable-background="new 0 0 64 64" height="512" viewBox="0 0 64 64" width="512" xmlns="http://www.w3.org/2000/svg"><g><path d="m60.232 57.023 2.888-13.479-4.12-2.746v-20.798c0-1.654-1.346-3-3-3h-3.051c-.522-8.908-7.913-16-16.949-16h-8c-9.036 0-16.427 7.092-16.949 16h-3.051c-1.654 0-3 1.346-3 3v20.798l-4.12 2.747 2.888 13.479c-1.544.12-2.768 1.401-2.768 2.976v3h62v-3c0-1.575-1.224-2.856-2.768-2.977zm-54.423-.023-2.315-10.803 3.506 2.338v8.465zm2.191-10.202-4.197-2.798 4.197-2.798 4.197 2.798zm1 1.737 3.506-2.338-2.315 10.803h-1.191zm3.237 8.465.429-2h38.669l.429 2zm27.763-4h-7v-6h2v-2h-2v-6h7zm-9-8h-2v2h2v6h-7v-14h7zm22.809 12-2.315-10.803 3.506 2.338v8.465zm2.191-10.202-4.197-2.798 4.197-2.798 4.197 2.798zm1 1.737 3.506-2.338-2.315 10.803h-1.191zm-37.414-39.535-2.586 2.586-1.636-1.636c.209-.326.432-.641.664-.95zm28.385 0c.233.309.456.624.664.95l-1.635 1.636-2.586-2.586zm1.662 2.781c.513 1.119.891 2.308 1.116 3.554l-2.335-2.335zm-4.047 1.219-3.586 3.586-3.586-3.586 3.586-3.586zm-8.586-1.414-2.586-2.586h5.172zm-1.414 1.414-3.586 3.586-3.586-3.586 3.586-3.586zm-8.586-1.414-2.586-2.586h5.172zm-1.414 1.414-3.586 3.586-3.586-3.586 3.586-3.586zm-10 0-2.335 2.335c.225-1.245.603-2.435 1.116-3.554zm1.414 1.414 2.586 2.586h-5.172zm10 0 2.586 2.586h-5.172zm10 0 2.586 2.586h-5.172zm10 0 2.586 2.586h-5.172zm-11-11.414c3.923 0 7.488 1.526 10.163 4h-28.326c2.675-2.474 6.24-4 10.163-4zm-29 17c0-.551.449-1 1-1h48c.551 0 1 .449 1 1v19.465l-1-.667-7.12 4.747 2.026 9.455h-8.906v-16h-20v16h-8.906l2.026-9.455-7.12-4.747-1 .667zm6 41h-10v-1c0-.551.449-1 1-1h8c.551 0 1 .449 1 1zm36 0h-34v-1c0-.352-.072-.686-.184-1h34.369c-.113.314-.185.648-.185 1zm12 0h-10v-1c0-.551.449-1 1-1h8c.551 0 1 .449 1 1z"/><path d="m29.405 33h.184c.488 0 .961-.087 1.411-.239v2.239h2v-2.239c.449.152.923.239 1.411.239h.184c2.429 0 4.405-1.976 4.405-4.405 0-1.311-.578-2.544-1.585-3.384l-5.415-4.513-5.415 4.513c-1.007.839-1.585 2.073-1.585 3.384 0 2.429 1.976 4.405 4.405 4.405zm-1.54-6.253 4.135-3.445 4.135 3.445c.55.459.865 1.132.865 1.848 0 1.326-1.079 2.405-2.405 2.405h-.184c-.643 0-1.247-.25-1.701-.705l-.712-.707-.707.707c-.455.455-1.059.705-1.702.705h-.184c-1.326 0-2.405-1.079-2.405-2.405 0-.716.315-1.389.865-1.848z"/><path d="m16 33.302 5.415-4.513c1.007-.839 1.585-2.073 1.585-3.384 0-2.429-1.976-4.405-4.405-4.405h-.184c-.869 0-1.7.25-2.411.716-.71-.466-1.542-.716-2.411-.716h-.184c-2.429 0-4.405 1.976-4.405 4.405 0 1.311.578 2.544 1.585 3.384zm-2.595-10.302h.184c.643 0 1.247.25 1.701.705l.712.707.707-.707c.455-.455 1.059-.705 1.702-.705h.184c1.326 0 2.405 1.079 2.405 2.405 0 .716-.315 1.389-.865 1.848l-4.135 3.445-4.135-3.445c-.55-.459-.865-1.132-.865-1.848 0-1.326 1.079-2.405 2.405-2.405z"/><path d="m54.414 27-6.414-6.414-6.414 6.414 6.414 6.414zm-6.414-3.586 3.586 3.586-3.586 3.586-3.586-3.586z"/></g></svg>