<svg id="Capa_1" enable-background="new 0 0 512 512" height="512" viewBox="0 0 512 512" width="512" xmlns="http://www.w3.org/2000/svg"><g><circle cx="256" cy="160" r="10"/><path d="m502 276h-121.197c-14.832-18.481-33.608-33.484-54.803-43.839v-102.161c0-3.788-2.14-7.25-5.528-8.944l-54.472-27.236v-43.82h20c5.523 0 10-4.478 10-10s-4.477-10-10-10h-20v-20c0-5.522-4.477-10-10-10s-10 4.478-10 10v20h-20c-5.523 0-10 4.478-10 10s4.477 10 10 10h20v43.82l-54.472 27.236c-3.388 1.694-5.528 5.156-5.528 8.944v102.161c-21.196 10.355-39.973 25.36-54.803 43.839h-121.197c-5.523 0-10 4.478-10 10v216c0 5.522 4.477 10 10 10h492c5.523 0 10-4.478 10-10v-216c0-5.522-4.477-10-10-10zm-10 60h-81.066c-3.623-13.956-9.187-27.472-16.435-40h97.501zm-236-224.819 50 25v87.821c-16.068-5.307-32.824-8.001-50-8.001s-33.932 2.694-50 8.001v-87.821zm-138.498 184.819c-7.25 12.53-12.813 26.045-16.436 40h-81.066v-40zm5.498 196h-40v-56c0-11.028 8.972-20 20-20s20 8.972 20 20zm306 0h-40v-56c0-11.028 8.972-20 20-20s20 8.972 20 20zm20 0v-56c0-22.056-17.944-40-40-40s-40 17.944-40 40v56h-43v-14c0-5.522-4.477-10-10-10s-10 4.478-10 10v14h-100v-116c0-27.57 22.43-50 50-50s50 22.43 50 50v12c0 5.522 4.477 10 10 10s10-4.478 10-10v-12c0-38.599-31.402-70-70-70s-70 31.401-70 70v116h-43v-56c0-22.056-17.944-40-40-40s-40 17.944-40 40v56h-43v-136h89.01c4.752 0 8.848-3.345 9.798-8.001 13.057-63.983 69.743-111.999 137.192-111.999 67.555 0 124.159 48.132 137.192 111.999.95 4.656 5.046 8.001 9.798 8.001h89.01v136z"/><circle cx="316" cy="433" r="10"/></g></svg>