<svg height="512pt" viewBox="0 0 512 512" width="512pt" xmlns="http://www.w3.org/2000/svg"><path d="m511.433594 125.203125c-.433594-.847656-.867188-1.691406-1.304688-2.535156l-32.261718-40.328125v-31.140625c9.421874-.011719 17.054687-7.644531 17.066406-17.066407v-17.066406c-.011719-9.421875-7.644532-17.0546872-17.066406-17.066406h-443.734376c-9.421874.0117188-17.054687 7.644531-17.066406 17.066406v17.066406c.011719 9.421876 7.644532 17.054688 17.066406 17.066407v31.140625l-32.261718 40.328125c-.191406.3125-.359375.636719-.503906.972656-.320313.492187-.589844 1.015625-.800782 1.5625-.179687.558594-.296875 1.140625-.351562 1.726563-.09375.351562-.167969.707031-.214844 1.070312v34.417969c.0273438 9.007812 7.042969 16.449219 16.039062 17 .359376.019531.675782.0625 1.027344.089843v306.890626c.015625 14.132812 11.46875 25.585937 25.601563 25.601562h426.664062c14.132813-.015625 25.585938-11.46875 25.601563-25.601562v-306.894532c.351562-.023437.664062-.066406 1.023437-.082031 8.996094-.550781 16.019531-7.992187 16.042969-17.003906v-34.417969c-.046875-.363281-.121094-.71875-.214844-1.070312-.054687-.585938-.171875-1.167969-.351562-1.726563zm-477.300782-108.136719h443.734376l.011718 17.066406h-443.746094zm426.667969 34.132813v25.601562h-409.601562v-25.601562zm17.066407 273.066406h-85.332032v-51.199219h47.664063l-19.566407 19.566406c-2.21875 2.144532-3.105468 5.316407-2.328124 8.300782.78125 2.980468 3.113281 5.3125 6.097656 6.09375 2.980468.78125 6.15625-.109375 8.296875-2.328125l31.632812-31.632813h13.535157zm0-68.265625h-85.332032c-9.421875.011719-17.058594 7.644531-17.070312 17.066406v51.199219c.011718 9.421875 7.648437 17.058594 17.070312 17.066406h85.332032v145.066407c-.003907 4.710937-3.824219 8.53125-8.535157 8.535156h-110.933593v-247.46875c.003906-4.710938 3.824218-8.527344 8.535156-8.53125h110.933594zm0-34.132812h-110.933594c-14.132813.015624-25.585938 11.46875-25.601563 25.597656v247.46875h-298.664062c-4.710938-.003906-8.53125-3.824219-8.535157-8.535156v-303.894532c4.199219 1.304688 8.324219 2.832032 12.359376 4.578125 13.933593 6.414063 29.152343 9.554688 44.488281 9.183594 15.335937.371094 30.554687-2.769531 44.496093-9.183594 11.878907-5.511719 24.875-8.210937 37.96875-7.882812 13.101563-.328125 26.101563 2.371093 37.988282 7.882812 13.941406 6.414063 29.167968 9.554688 44.507812 9.183594 15.339844.371094 30.5625-2.769531 44.5-9.183594 11.882813-5.511719 24.875-8.210937 37.972656-7.882812 13.101563-.328125 26.105469 2.371093 38 7.882812 13.949219 6.414063 29.179688 9.554688 44.527344 9.183594 15.347656.371094 30.578125-2.769531 44.527344-9.183594 4.046875-1.75 8.1875-3.28125 12.398438-4.585937zm17.046874-59.484376c-12.445312.695313-24.644531 3.726563-35.96875 8.933594-11.894531 5.515625-24.898437 8.210938-38.003906 7.882813-13.105468.328125-26.109375-2.367188-38.003906-7.882813-13.949219-6.410156-29.175781-9.554687-44.523438-9.183594-15.339843-.371093-30.558593 2.773438-44.496093 9.183594-11.882813 5.511719-24.878907 8.210938-37.972657 7.882813-13.101562.328125-26.097656-2.371094-37.984374-7.882813-13.945313-6.414062-29.171876-9.554687-44.515626-9.183594-15.335937-.371093-30.558593 2.773438-44.496093 9.183594-11.882813 5.515625-24.878907 8.210938-37.972657 7.882813-13.089843.328125-26.082031-2.367188-37.957031-7.882813-11.316406-5.210937-23.515625-8.230468-35.953125-8.898437v-25.882813h358.398438c4.714844 0 8.535156-3.824218 8.535156-8.535156s-3.820312-8.535156-8.535156-8.535156h-349.175782l20.480469-25.597656h418.460938l20.480469 25.597656h-76.109376c-4.714843 0-8.535156 3.824218-8.535156 8.535156s3.820313 8.535156 8.535156 8.535156h85.332032zm0 0"/><path d="m315.734375 435.199219v-196.265625c-.011719-9.421875-7.648437-17.054688-17.066406-17.066406h-221.867188c-9.421875.011718-17.054687 7.644531-17.066406 17.066406v196.265625c-4.714844 0-8.535156 3.820312-8.535156 8.535156 0 4.710937 3.820312 8.53125 8.535156 8.53125h256c4.710937 0 8.53125-3.820313 8.53125-8.53125 0-4.714844-3.820313-8.535156-8.53125-8.535156zm-128-159.0625.136719-.027344c5.519531-.078125 11.019531-.679687 16.425781-1.800781-.386719 7.515625-3.023437 14.746094-7.566406 20.746094-5.035157 4.8125-12.960938 4.8125-17.992188 0-4.546875-6-7.183593-13.230469-7.570312-20.75 5.410156 1.121093 10.914062 1.726562 16.441406 1.808593zm-40.96875 45.867187c-4.296875-3.246094-9.878906-4.257812-15.039063-2.722656l-10.847656 3.199219-9.859375-22.945313 43.375-21.824218c.902344 10.773437 5.140625 21 12.117188 29.257812 11.730469 11.6875 30.703125 11.6875 42.433593 0 6.980469-8.261719 11.214844-18.488281 12.117188-29.265625l43.390625 21.796875-9.859375 22.976562-10.859375-3.195312c-5.160156-1.507812-10.730469-.496094-15.03125 2.726562-4.300781 3.222657-6.835937 8.28125-6.835937 13.660157v65.398437h-68.265626v-65.398437c.023438-5.382813-2.515624-10.453125-6.835937-13.660157zm151.902344 113.195313h-221.867188v-196.265625h102.398438v19.542968c-3.210938-.417968-6.398438-1.027343-9.535157-1.820312-2.351562-.535156-4.769531-.691406-7.167968-.460938-.054688 0-.09375-.03125-.148438-.03125-1.222656.003907-2.425781.273438-3.535156.789063-.570312.160156-1.1875.152344-1.742188.359375-.28125.109375-.554687.226562-.824218.359375l-54.613282 27.527344c-6.976562 4.425781-9.6875 13.269531-6.390624 20.84375l10.109374 23.53125c3.175782 7.898437 11.921876 11.992187 20.019532 9.371093l11.164062-3.277343v65.996093c-.15625 8.925782 6.945313 16.292969 15.871094 16.46875h70.65625c8.945312-.203124 16.042969-7.605468 15.871094-16.554687v-65.910156l10.707031 3.125c8.148437 2.875 17.121094-1.128907 20.429687-9.109375l10.136719-23.601563c3.347657-7.855469.320313-16.976562-7.0625-21.273437l-53.929687-27.136719c-.265625-.132813-.542969-.25-.820313-.359375-4.066406-1.488281-8.492187-1.710938-12.691406-.628906-3.105469.789062-6.257813 1.390625-9.4375 1.804687v-19.554687h102.402344zm-188.652344-135.15625-.023437.015625zm0 0"/><path d="m392.535156 392.535156c4.710938 0 8.53125-3.824218 8.53125-8.535156v-17.066406c0-4.714844-3.820312-8.535156-8.53125-8.535156-4.714844 0-8.535156 3.820312-8.535156 8.535156v17.066406c0 4.710938 3.820312 8.535156 8.535156 8.535156zm0 0"/></svg>