<svg id="Layer_3" enable-background="new 0 0 64 64" height="512" viewBox="0 0 64 64" width="512" xmlns="http://www.w3.org/2000/svg"><g><path d="m32 7c-2.206 0-4 1.794-4 4s1.794 4 4 4 4-1.794 4-4-1.794-4-4-4zm0 6c-1.103 0-2-.897-2-2s.897-2 2-2 2 .897 2 2-.897 2-2 2z"/><path d="m58 27c.552 0 1-.447 1-1v-3h3c.552 0 1-.447 1-1v-4c0-.553-.448-1-1-1h-1.735l-27.769-15.868c-.308-.176-.685-.176-.992 0l-27.769 15.868h-1.735c-.552 0-1 .447-1 1v4c0 .553.448 1 1 1h3v3c0 .553.448 1 1 1h1v20h-1c-.552 0-1 .447-1 1v3h-1c-.552 0-1 .447-1 1v3h-1c-.552 0-1 .447-1 1v6c0 .553.448 1 1 1h60c.552 0 1-.447 1-1v-6c0-.553-.448-1-1-1h-1v-3c0-.553-.448-1-1-1h-1v-3c0-.553-.448-1-1-1h-1v-20zm-1-2h-8v-2h8zm-9 22c-.552 0-1 .447-1 1v3h-4v-6h1c.552 0 1-.447 1-1v-4c0-.553-.448-1-1-1h-.721c.467-.712.721-1.543.721-2.414v-.758c0-1.446-.563-2.806-1.586-3.828-.267-.268-.414-.623-.414-1 0-.378.147-.732.414-1l1.293-1.293c.286-.286.372-.716.217-1.09s-.52-.617-.924-.617h-8c-.404 0-.769.243-.924.617s-.069.804.217 1.09l1.292 1.293c.268.268.415.622.415 1s-.147.732-.414 1c-1.023 1.022-1.586 2.382-1.586 3.828v.758c0 .871.254 1.702.721 2.414h-.721c-.552 0-1 .447-1 1v4c0 .553.448 1 1 1h1v6h-6v-6h1c.552 0 1-.447 1-1v-4c0-.553-.448-1-1-1h-.721c.467-.712.721-1.543.721-2.414v-.758c0-1.446-.563-2.806-1.586-3.828-.267-.268-.414-.623-.414-1 0-.378.147-.732.414-1l1.293-1.293c.286-.286.372-.716.217-1.09s-.52-.617-.924-.617h-8c-.404 0-.769.243-.924.617s-.069.804.217 1.09l1.292 1.293c.268.268.415.622.415 1s-.147.732-.414 1c-1.023 1.022-1.586 2.382-1.586 3.828v.758c0 .871.254 1.702.721 2.414h-.721c-.552 0-1 .447-1 1v4c0 .553.448 1 1 1h1v6h-4v-3c0-.553-.448-1-1-1h-1v-20h1c.552 0 1-.447 1-1v-3h30v3c0 .553.448 1 1 1h1v20zm-10.646-18h3.293c-.42.578-.647 1.272-.647 2 0 .911.355 1.769 1 2.414.444.444.739.992.887 1.586h-5.774c.148-.594.443-1.142.887-1.586.645-.646 1-1.503 1-2.414 0-.728-.227-1.421-.646-2zm-2.354 14v-2h3.414 1.172 3.414v2zm1.708-4.707c-.357-.357-.583-.806-.667-1.293h5.919c-.084.487-.31.936-.667 1.293-.456.456-1.062.707-1.707.707h-1.172c-.645 0-1.251-.251-1.706-.707zm4.292 6.707v6h-4v-6zm-17.646-16h3.293c-.42.578-.647 1.272-.647 2 0 .911.355 1.769 1 2.414.444.444.739.992.887 1.586h-5.774c.148-.594.443-1.142.887-1.586.645-.646 1-1.503 1-2.414 0-.728-.227-1.421-.646-2zm-2.354 14v-2h3.414 1.172 3.414v2zm1.708-4.707c-.357-.357-.583-.806-.667-1.293h5.919c-.084.487-.31.936-.667 1.293-.456.456-1.062.707-1.707.707h-1.172c-.645 0-1.251-.251-1.706-.707zm4.292 6.707v6h-4v-6zm5-41.849 24.235 13.849h-48.47zm-29 15.849h58v2h-58zm12 4v2h-8v-2zm-6 4h4v20h-4zm-2 22h8v2h-8zm54 12h-58v-4h58zm-56-6v-2h54v2zm44-4v-2h8v2zm6-4h-4v-20h4z"/></g></svg>