<?xml version="1.0" encoding="iso-8859-1"?>
<!-- Generator: Adobe Illustrator 19.0.0, SVG Export Plug-In . SVG Version: 6.00 Build 0)  -->
<svg version="1.1" id="Layer_1" xmlns="http://www.w3.org/2000/svg" xmlns:xlink="http://www.w3.org/1999/xlink" x="0px" y="0px"
	 viewBox="0 0 496.064 496.064" style="enable-background:new 0 0 496.064 496.064;" xml:space="preserve">
<g>
	<g>
		<path d="M402.656,98.319c-41.301-41.301-96.215-64.047-154.624-64.047c-58.41,0-113.323,22.745-154.625,64.047
			C52.106,139.621,29.36,194.534,29.36,252.944c0,58.409,22.746,113.322,64.047,154.624c41.302,41.302,96.215,64.048,154.625,64.048
			c58.409,0,113.323-22.746,154.624-64.048c41.302-41.302,64.048-96.214,64.048-154.624
			C466.704,194.534,443.958,139.621,402.656,98.319z M248.032,439.616c-102.931,0-186.672-83.74-186.672-186.672
			c0-102.931,83.74-186.672,186.672-186.672c102.931,0,186.672,83.741,186.671,186.672
			C434.703,355.876,350.963,439.616,248.032,439.616z"/>
	</g>
</g>
<g>
	<g>
		<path d="M247.52,0c-8.836,0-16,7.164-16,16v464.064c0,8.837,7.164,16,16,16c8.837,0,16-7.163,16-16V16
			C263.52,7.164,256.357,0,247.52,0z"/>
	</g>
</g>
<g>
	<g>
		<path d="M349.172,101.305c-26.389-43.218-62.314-67.019-101.156-67.019c-38.843,0-74.767,23.801-101.156,67.019
			c-24.884,40.753-38.588,94.605-38.588,151.638c0,57.033,13.704,110.885,38.588,151.638
			c26.389,43.218,62.314,67.019,101.156,67.019c38.842,0,74.767-23.8,101.156-67.019c24.884-40.753,38.588-94.605,38.588-151.638
			C387.76,195.91,374.056,142.057,349.172,101.305z M321.861,387.905c-20.356,33.337-46.58,51.695-73.845,51.695
			c-27.264,0-53.49-18.358-73.845-51.695c-21.86-35.801-33.899-83.731-33.899-134.961s12.039-99.16,33.899-134.961
			c20.356-33.336,46.581-51.695,73.845-51.695c27.265,0,53.489,18.359,73.845,51.695c21.86,35.8,33.899,83.73,33.899,134.961
			C355.76,304.175,343.721,352.104,321.861,387.905z"/>
	</g>
</g>
<g>
	<g>
		<path d="M448.608,232.032H46.432c-8.836,0-16,7.164-16,16c0,8.837,7.164,16,16,16h402.176c8.837,0,16-7.163,16-16
			C464.608,239.196,457.445,232.032,448.608,232.032z"/>
	</g>
</g>
<g>
	<g>
		<path d="M412.24,123.744H85.664c-8.836,0-16,7.164-16,16s7.164,16,16,16H412.24c8.837,0,16-7.164,16-16
			S421.077,123.744,412.24,123.744z"/>
	</g>
</g>
<g>
	<g>
		<path d="M417.68,340.32H77.376c-8.836,0-16,7.163-16,16c0,8.837,7.164,16,16,16H417.68c8.837,0,16-7.163,16-16
			C433.68,347.483,426.517,340.32,417.68,340.32z"/>
	</g>
</g>
<g>
</g>
<g>
</g>
<g>
</g>
<g>
</g>
<g>
</g>
<g>
</g>
<g>
</g>
<g>
</g>
<g>
</g>
<g>
</g>
<g>
</g>
<g>
</g>
<g>
</g>
<g>
</g>
<g>
</g>
</svg>
