<?xml version="1.0"?>
<svg xmlns="http://www.w3.org/2000/svg" width="512" height="512" viewBox="0 0 512 512"><g><path d="M256,248a72,72,0,1,0,72,72A72.081,72.081,0,0,0,256,248Zm0,128a56,56,0,1,1,56-56A56.063,56.063,0,0,1,256,376Z"/><path d="M280,312H264V280a8,8,0,0,0-16,0v40a8,8,0,0,0,8,8h24a8,8,0,0,0,0-16Z"/><path d="M256,456a8,8,0,0,0-8,8v32a8,8,0,0,0,16,0V464A8,8,0,0,0,256,456Z"/><path d="M224,456a8,8,0,0,0-8,8v32a8,8,0,0,0,16,0V464A8,8,0,0,0,224,456Z"/><path d="M288,456a8,8,0,0,0-8,8v32a8,8,0,0,0,16,0V464A8,8,0,0,0,288,456Z"/><path d="M486.74,101.01a39.99,39.99,0,0,0-34.06-29.74,60.014,60.014,0,0,0-104.8-16.11c-1.3-.11-2.59-.16-3.88-.16a48,48,0,0,0,0,96H448a40.026,40.026,0,0,0,38.74-49.99ZM448,135H344a32,32,0,1,1,6.17-63.4,8,8,0,0,0,8.35-3.65,44,44,0,0,1,80.3,12.91,8.047,8.047,0,0,0,8.15,6.16c.34-.01.69-.02,1.03-.02a23.971,23.971,0,0,1,23.24,18,23.611,23.611,0,0,1,.76,6A24.032,24.032,0,0,1,448,135Z"/><path d="M425.36,332.16a35.064,35.064,0,0,0-29.1-25.98A51.712,51.712,0,0,0,352,272.21V232a8,8,0,0,0-8-8V184a8,8,0,0,0-16,0v8h-5.25L288,150.3V120a8,8,0,0,0-8-8h-.76l-7.28-72.8A8,8,0,0,0,264,32V16a8,8,0,0,0-16,0V32a8,8,0,0,0-7.96,7.2L232.76,112H232a8,8,0,0,0-8,8v30.3L189.25,192H184v-8a8,8,0,0,0-16,0v40a8,8,0,0,0-8,8V355.43a60.007,60.007,0,0,0-68.12,20.73c-1.3-.11-2.59-.16-3.88-.16a48,48,0,0,0,0,96h88v24a8,8,0,0,0,16,0V440H320v56a8,8,0,0,0,16,0V416h8a8,8,0,0,0,8-8V376h39.38a35.119,35.119,0,0,0,33.98-43.84ZM255.24,48h1.52l6.4,64H248.84ZM240,128h32v16H240Zm-3.25,32h38.5l26.67,32H210.08ZM184,208H328v16H184Zm-8,248H88a32,32,0,1,1,6.17-63.4,8,8,0,0,0,8.35-3.65A43.972,43.972,0,0,1,160,372.82V408a8,8,0,0,0,8,8h8Zm144-32H192v-8H320Zm16-24H176V240H336Zm55.38-40H352V288.29a35.805,35.805,0,0,1,30.42,27.41,7.994,7.994,0,0,0,8.13,6.16c.28-.01.56-.01.83-.01a19.075,19.075,0,1,1,0,38.15Z"/></g></svg>
