<svg height="512" viewBox="0 0 512 512" width="512" xmlns="http://www.w3.org/2000/svg"><path d="m176 104.094h16v16.317h-16z" transform="matrix(.196 -.981 .981 .196 37.845 270.668)"/><path d="m244 89.14h16v73.426h-16z" transform="matrix(.196 -.981 .981 .196 79.17 348.278)"/><path d="m176 223.589h16v16.317h-16z" transform="matrix(.196 -.981 .981 .196 -79.33 366.729)"/><path d="m244 208.634h16v73.426h-16z" transform="matrix(.196 -.981 .981 .196 -38.004 444.338)"/><path d="m176 343.589h16v16.317h-16z" transform="matrix(.196 -.981 .981 .196 -197 463.198)"/><path d="m76.444 484c16.578 0 25.162-9.167 32.06-16.532 6.235-6.657 10.74-11.468 20.382-11.468s14.147 4.811 20.382 11.468c6.898 7.365 15.482 16.532 32.062 16.532s25.162-9.167 32.06-16.532c6.235-6.657 10.739-11.468 20.381-11.468s14.146 4.811 20.381 11.468c6.9 7.365 15.482 16.532 32.061 16.532s25.163-9.167 32.061-16.532c6.235-6.657 10.741-11.468 20.383-11.468s14.148 4.811 20.383 11.468c6.9 7.365 15.481 16.532 32.06 16.532s25.166-9.166 32.064-16.531c6.236-6.658 10.742-11.469 20.386-11.469s14.15 4.811 20.386 11.469c6.898 7.365 15.483 16.531 32.064 16.531v-16c-9.645 0-14.15-4.811-20.386-11.469-6.898-7.365-15.484-16.531-32.064-16.531s-25.166 9.166-32.064 16.531c-6.236 6.658-10.741 11.469-20.386 11.469s-14.147-4.811-20.382-11.468c-6.9-7.365-15.481-16.532-32.061-16.532s-25.163 9.167-32.061 16.532c-6.235 6.657-10.741 11.468-20.383 11.468s-14.147-4.811-20.382-11.468a75.281 75.281 0 0 0 -9.831-9.242v-40.729l95.053 19.008a34.446 34.446 0 0 0 6.758.672 34.247 34.247 0 0 0 34.189-34.241 8 8 0 0 0 -6.431-7.845l-96.049-19.21.049-.242-5.037-1.008a40.885 40.885 0 0 1 -22.632-17.841l81.215-41.733a43.3 43.3 0 0 0 14.08-85.389l-52.538-10.507 38.828-24.058a43.3 43.3 0 0 0 13.71-85.435l-209.4-41.879a43.443 43.443 0 0 0 -10.746-.776 7.878 7.878 0 0 0 -1.049-.077h-24v-24a8 8 0 0 0 -6.06-7.761l-32-8a7.985 7.985 0 0 0 -3.88 0l-32 8a8 8 0 0 0 -6.06 7.761v24h-8a8 8 0 0 0 -8 8v72a8 8 0 0 0 8 8h8v299.138a41.525 41.525 0 0 0 -16-3.138v16c10.255 0 17.16 5.65 25.156 12.191 9.056 7.409 19.321 15.809 35.288 15.809zm-12.444-19.127a40.1 40.1 0 0 1 -3.614-2.122l3.614-1.807zm0-21.817-16 8v-22.112l16-8zm0-40-16 8v-22.112l16-8zm0-40-16 8v-22.112l16-8zm0-40-16 8v-22.112l16-8zm0-40-16 8v-22.112l16-8zm0-40-16 8v-22.112l16-8zm0-40-16 8v-22.112l16-8zm0-40-16 8v-27.056h16zm176 277.42a40.58 40.58 0 0 0 -6.229-.476 38.489 38.489 0 0 0 -9.771 1.219v-41.058l16 3.2zm40.608-61.249c1.65.492 3.331.919 5.046 1.262l89.218 17.844a18.253 18.253 0 0 1 -20.682 11.547l-220.241-44.045a27.3 27.3 0 1 1 10.7-53.55l95.739 19.151a56.692 56.692 0 0 0 9.526 25.336l-32.345-6.472-3.138 15.689zm-119.744-80.016 35.545-24.318 11.591 2.318v31.429zm63.136 12.629v-31.429l16 3.2v31.43zm32.434 18.832a40.607 40.607 0 0 1 -.434-5.872v-37.989l61.753 12.351zm97.619-96.25a27.3 27.3 0 1 1 -10.708 53.541l-209.4-41.88a27.3 27.3 0 1 1 10.708-53.541zm-193.463-55.01 35.82-24.519 11.59 2.318v31.683zm63.41 12.682v-31.683l16 3.2v31.683zm57.688 11.538-25.688-5.138v-31.683l64.345 12.869zm-159.695-125.432a27.192 27.192 0 0 1 17.272-6.193 27.54 27.54 0 0 1 5.39.535l209.4 41.88a27.3 27.3 0 1 1 -10.708 53.541l-209.4-41.88a27.3 27.3 0 0 1 -11.954-47.883zm19.951 65.8 32.545 6.509-37.343 25.561a43.3 43.3 0 0 0 -6.337 85.7l43.674 8.735-36.965 25.295a43.3 43.3 0 0 0 -6.707 85.729l77.189 15.432v53.25c-2.314 2.09-4.372 4.273-6.289 6.321-6.235 6.657-10.74 11.468-20.381 11.468s-14.148-4.811-20.383-11.468c-6.9-7.366-15.482-16.532-32.061-16.532s-25.163 9.167-32.061 16.532c-5.413 5.78-9.525 10.168-16.825 11.219v-323.751zm-93.944-105.754 24-6 24 6v17.754h-48zm-16 89.754v-56h73.71a43.038 43.038 0 0 0 -9.445 32h-16.265v16h21.3a43.721 43.721 0 0 0 5.613 8z"/><path d="m476.382 374.479a8.352 8.352 0 0 1 -6.56 1.337l-67.944-16.408-3.756 15.552 68.043 16.433.169.039a24.444 24.444 0 1 0 10.44-47.76l-9.838-2.151-3.416 15.631 9.837 2.151a8.483 8.483 0 0 1 6.561 9.414 8.355 8.355 0 0 1 -3.536 5.762z"/><path d="m356 346.145h16v24.69h-16z" transform="matrix(.235 -.972 .972 .235 -69.926 628.156)"/><path d="m312 339.634h16v16.46h-16z" transform="matrix(.235 -.972 .972 .235 -93.262 577.263)"/><path d="m48 104h16v16h-16z"/></svg>