<svg height="512pt" viewBox="0 0 511 512" width="512pt" xmlns="http://www.w3.org/2000/svg"><path d="m510.9375 473.710938c-.003906-4.128907-3.351562-7.472657-7.480469-7.472657l-12.957031.003907-.085938-320.867188c11.472657-1.25 20.433594-10.996094 20.429688-22.792969-.003906-12.640625-10.285156-22.921875-22.925781-22.921875-.003907 0-.003907 0-.007813 0l-43.359375.011719-.023437-92.199219c0-4.128906-3.347656-7.472656-7.476563-7.472656l-273.113281.0742188c-9.507812 0-9.542969 14.9492192.003906 14.9492192l265.636719-.070313.03125 123.101563.015625 50.335937-347.871094.09375-.023437-81.234375s0 0 0-.003906v-.003906l-.023438-92.195313 37.378907-.011719c9.503906 0 9.542968-14.9492185-.003907-14.9492185l-44.855469.0117187c-4.074218 0-7.472656 3.4023438-7.472656 7.4765628l.023438 92.199219-43.359375.011718c-12.640625.003906-22.921875 10.292969-22.917969 22.933594.003906 11.800781 8.964844 21.539062 20.441406 22.78125l.082032 320.867188-12.957032.003906c-1.980468 0-3.882812.789062-5.285156 2.191406s-2.1875 3.304688-2.1875 5.285156l.007812 30.679688c0 4.128906 3.347657 7.472656 7.476563 7.472656l495.394531-.132812c1.980469 0 3.882813-.789063 5.285156-2.191407 1.402344-1.398437 2.1875-3.300781 2.1875-5.285156zm-156.015625-9.871094c-1.503906-1.507813-2.332031-3.507813-2.332031-5.636719-.003906-2.128906.824218-4.128906 2.332031-5.636719 1.203125-1.203125 2.730469-1.96875 4.386719-2.226562l27.605468-.007813c.414063 0 .816407-.042969 1.207032-.105469l13.320312-.003906c2.128906 0 4.128906.828125 5.632813 2.332032 1.507812 1.503906 2.335937 3.503906 2.335937 5.632812 0 3.269531-1.976562 6.082031-4.796875 7.308594l-47.230469.015625c-.90625-.394531-1.742187-.953125-2.460937-1.671875zm-50.355469-161.785156s0 0-.003906 0l-48.84375.011718-66.285156.019532-.003906-21.929688 132.570312-.035156.003906 21.929687zm-48.84375 14.964843 41.367188-.011719.03125 117.617188-82.730469.023438-.035156-117.617188zm56.347656 118.378907-.03125-118.394532 17.445313-.003906c4.074219-.003906 7.476563-3.402344 7.472656-7.480469l-.007812-36.878906c-.003907-4.128906-3.347657-7.472656-7.476563-7.472656 0 0 0 0-.003906 0l-147.519531.039062c-4.074219 0-7.476563 3.402344-7.472657 7.476563l.007813 36.878906c0 4.128906 3.347656 7.476562 7.476563 7.476562h.003906l17.441406-.007812.03125 118.398438-45.546875.011718-.050781-203.621094c17.609375 1.320313 34-11.015624 37.382812-28.417968l128.953125-.03125c3.34375 16.988281 19.203125 29.335937 36.480469 28.460937l.035156 130.011719c0 9.554688 14.953125 9.699219 14.949219-.003906l-.035156-134.195313c4.125-2.230469 7.757812-5.257812 10.691406-8.875 2.71875 3.34375 6.039063 6.183594 9.789063 8.355469l.054687 206.476562-20.480469.007813-.007812-27.910156c0-9.554688-14.953125-9.695313-14.949219.003906l.003906 29.683594zm-158.195312 17.222656c1.503906 1.503906 2.332031 3.507812 2.332031 5.636718.003907 3.265626-1.976562 6.078126-4.796875 7.308594l-47.222656.011719c-2.820312-1.226563-4.800781-4.039063-4.800781-7.304687 0-4.394532 3.570312-7.972657 7.964843-7.972657l15.136719-.003906c.390625.0625.792969.105469 1.203125.105469l25.792969-.007813c1.65625.257813 3.183594 1.019531 4.390625 2.226563zm-33.242188-248.546875c-1.011718 2.574219-2.550781 4.933593-4.5625 6.945312-3.851562 3.851563-8.96875 5.976563-14.417968 5.976563h-.003906c-5.445313 0-10.566407-2.117188-14.414063-5.96875-2.015625-2.011719-3.554687-4.371094-4.566406-6.941406zm18.308594 229.597656-20.480468.003906-.058594-205.9375c2.996094-1.613281 5.769531-3.675781 8.246094-6.148437.867187-.871094 1.683593-1.777344 2.449218-2.71875.765625.941406 1.582032 1.847656 2.449219 2.71875 2.222656 2.21875 4.691406 4.097656 7.339844 5.628906zm3.175782-222.660156c-2.011719-2.011719-3.554688-4.371094-4.566407-6.941407l37.96875-.007812c-1.011719 2.570312-2.550781 4.929688-4.566406 6.941406-3.847656 3.855469-8.96875 5.976563-14.414063 5.976563-.003906 0-.003906 0-.007812 0-5.445312 0-10.5625-2.117188-14.414062-5.96875zm-75.3125-17.0625c-.316407.828125-.5 1.722656-.5 2.664062.003906 9.441407 3.683593 18.316407 10.359374 24.988281 6.675782 6.671876 15.546876 10.34375 24.984376 10.34375h.011718c.597656 0 1.199219-.015624 1.792969-.042968l.054687 203.773437c-10.8125 1.835938-19.074218 11.269531-19.074218 22.597657.003906 2.554687.429687 5.011718 1.203125 7.308593l-49.660157.011719-.085937-319.960938 30.898437-.007812zm408.660156-48.429688.085937 319.960938-52.390625.011719c.773438-2.296876 1.199219-4.75 1.199219-7.304688 0-6.125-2.386719-11.878906-6.714844-16.207031-2.960937-2.960938-6.597656-4.984375-10.550781-5.984375l-.054688-204.242188c.890626.066406 1.789063.113282 2.695313.113282h.007813c19.488281-.003907 35.339843-15.867188 35.332031-35.351563 0-.921875-.175781-1.820313-.496094-2.664063l-.011719-48.324218zm-46.757813 58.472657c-2.984375 7.558593-10.363281 12.917968-18.96875 12.921874 0 0 0 0-.003906 0-2.160156 0-4.265625-.347656-6.265625-.992187-.730469-.449219-1.539062-.78125-2.40625-.957031-2.101562-.992188-4.050781-2.328125-5.742188-4.019532-2.015624-2.011718-3.554687-4.371093-4.566406-6.941406zm-64.867187 10.84375c-1.597656.0625-3.070313.625-4.257813 1.539062-1.519531.359375-3.101562.554688-4.726562.554688-.003907 0-.003907 0-.003907 0-5.445312 0-10.566406-2.117188-14.417968-5.96875-2.011719-2.011719-3.550782-4.371094-4.566406-6.941407l37.957031-.011719c-1.867188 4.726563-5.453125 8.59375-9.984375 10.828126zm124.074218-100.222657h.003907c4.394531 0 7.972656 3.578125 7.972656 7.972657.003906 4.398437-3.574219 7.976562-7.972656 7.976562l-43.359375.011719-.003906-15.949219zm-472.460937 8.101563c-.003906-4.398438 3.574219-7.976563 7.96875-7.976563l43.359375-.011719.003906 15.949219-43.359375.011719c-2.128906 0-4.132812-.832031-5.636719-2.335938-1.507812-1.503906-2.335937-3.507812-2.335937-5.636718zm.097656 374.332031-.003906-15.726563 172.441406-.046874c9.792969 0 9.792969-15.71875-.003906-15.71875l-18.03125.003906c1.652344-4.925782 1.582031-10.285156-.203125-15.167969l169.289062-.046875c-1.78125 4.886719-1.847656 10.242188-.195312 15.171875l-102.019531.027344c-9.832031 0-9.761719 15.722656.003906 15.71875l259.160156-.070313.003907 15.726563zm0 0"/><path d="m67.832031 322.054688c3.984375 0 7.476563-3.496094 7.476563-7.480469l-.011719-36.878907c0-9.550781-14.953125-9.695312-14.949219.003907l.007813 36.878906c.003906 4.128906 3.347656 7.476563 7.476562 7.476563zm0 0"/><path d="m67.847656 357.9375c-3.984375 0-7.476562 3.492188-7.476562 7.476562l.007812 36.882813c.003906 9.550781 14.957032 9.695313 14.953125-.003906l-.011719-36.882813c0-4.128906-3.347656-7.472656-7.472656-7.472656zm0 0"/><path d="m440.609375 270.121094c-4.128906.003906-7.472656 3.351562-7.472656 7.480468l.011719 36.878907c0 9.550781 14.953124 9.695312 14.949218-.003907l-.007812-36.878906c-.003906-4.230468-3.503906-7.175781-7.480469-7.476562zm0 0"/><path d="m440.636719 357.835938c-3.980469.214843-7.476563 3.320312-7.476563 7.480468l.011719 36.878906c0 9.554688 14.953125 9.695313 14.949219-.003906l-.007813-36.878906c-.003906-4.128906-3.347656-7.476562-7.476562-7.476562zm0 0"/><path d="m162.464844 120.460938c3.929687 13.332031 12.816406 24.339843 25.023437 30.992187 7.746094 4.21875 16.242188 6.363281 24.828125 6.363281 4.941406 0 9.910156-.710937 14.78125-2.144531 7.269532-2.140625 13.835938-5.765625 19.394532-10.589844 5.207031 13.496094 15.890624 24.441407 29.671874 29.8125 6.1875 2.410157 12.5625 3.550781 18.835938 3.550781 20.832031 0 40.542969-12.597656 48.550781-33.148437l22.980469-58.964844c.855469-2.199219.625-4.671875-.625-6.671875-1.246094-2-3.367188-3.296875-5.71875-3.492187-.238281-.019531-24.136719-2.085938-42.023438-9.054688-17.050781-6.644531-36.929687-21.660156-37.128906-21.8125-1.867187-1.417969-4.292968-1.878906-6.546875-1.242187-2.257812.636718-4.085937 2.296875-4.9375 4.480468l-11.253906 28.878907-13.875-47.082031c-.664063-2.261719-2.363281-4.074219-4.570313-4.894532-2.210937-.824218-4.679687-.550781-6.660156.730469-.203125.128906-20.429687 13.132813-38.789062 18.542969-17.554688 5.171875-42.464844 5.449218-42.714844 5.453125-2.34375.019531-4.546875 1.136719-5.941406 3.023437-1.398438 1.882813-1.828125 4.3125-1.164063 6.5625zm117.53125-57.550782c7.976562 5.4375 20.71875 13.449219 32.742187 18.136719 12.425781 4.839844 26.949219 7.511719 36.355469 8.851563l-19.472656 49.972656c-7.425782 19.054687-28.976563 28.515625-48.027344 21.089844-12.472656-4.859376-21.390625-16.121094-23.269531-29.390626-.046875-.332031-.125-.652343-.210938-.96875 4.78125-8.796874 6.875-18.554687 6.207031-28.304687.425782-.554687.78125-1.171875 1.046876-1.851563zm-81.367188-3.851562c12.792969-3.769532 25.914063-10.542969 34.179688-15.234375l15.15625 51.445312c2.804687 9.503907 1.734375 19.527344-3.003906 28.226563-4.742188 8.699218-12.585938 15.035156-22.089844 17.835937-19.621094 5.78125-40.28125-5.476562-46.0625-25.097656l-15.171875-51.496094c9.632812-.582031 24.617187-2.035156 36.992187-5.679687zm0 0"/><path d="m189.0625 90.828125c9.621094 0 9.636719-14.953125 0-14.953125-9.621094 0-9.636719 14.953125 0 14.953125zm0 0"/><path d="m219.839844 81.757812c9.621094 0 9.636718-14.949218 0-14.949218-9.617188 0-9.632813 14.949218 0 14.949218zm0 0"/><path d="m190.554688 112.023438c1.574218 5.34375 5.589843 9.753906 11.023437 12.105468 2.890625 1.25 6.046875 1.878906 9.269531 1.878906 2.390625 0 4.820313-.347656 7.199219-1.050781 5.578125-1.640625 10.332031-5.0625 13.386719-9.628906 3.292968-4.917969 4.277344-10.800781 2.699218-16.144531-1.164062-3.960938-5.328124-6.222656-9.28125-5.058594l-29.238281 8.617188c-3.960937 1.167968-6.226562 5.324218-5.058593 9.28125zm0 0"/><path d="m290.304688 101.890625c9.621093 0 9.636718-14.949219 0-14.949219-9.617188 0-9.632813 14.949219 0 14.949219zm0 0"/><path d="m320.207031 113.542969c9.617188 0 9.636719-14.953125 0-14.953125-9.621093 0-9.636719 14.953125 0 14.953125zm0 0"/><path d="m273.589844 139.527344 28.402344 11.066406c.890624.347656 1.808593.511719 2.710937.511719 2.992187 0 5.816406-1.808594 6.96875-4.761719 2.019531-5.1875 1.539063-11.136719-1.320313-16.316406-2.65625-4.808594-7.101562-8.621094-12.523437-10.734375-5.417969-2.109375-11.269531-2.3125-16.476563-.570313-5.613281 1.882813-9.992187 5.9375-12.011718 11.125-1.5 3.84375.402344 8.179688 4.25 9.679688zm0 0"/></svg>